<svg xmlns="http://www.w3.org/2000/svg" width="754.844" height="1031.506" viewBox="0 0 754.844 1031.506">
  <g id="Group_14" data-name="Group 14" transform="matrix(-0.391, 0.921, -0.921, -0.391, 5407.688, 1732.411)">
    <path id="Path_61" data-name="Path 61" d="M49.46.988,224.879,4.494c27.316.546,49.9,23.929,50.448,52.228s-21.156,50.8-48.472,50.252L51.437,103.468C24.121,102.922,1.534,79.539.988,51.24S22.144.442,49.46.988Z" transform="matrix(0.914, 0.407, -0.407, 0.914, 380.738, 4891.55)" fill="#ebf4f9"/>
    <rect id="Rectangle_39" data-name="Rectangle 39" width="308.5" height="103.36" rx="51.68" transform="translate(307.66 5055.208)" fill="#ebf4f9"/>
    <path id="Path_31" data-name="Path 31" d="M40.673-.257,213.408-4.264c21.935-.438,39.274,22.147,38.728,50.446s-18.77,51.6-40.7,52.034L37.739,101.686C15.8,102.125-1.534,79.539-.988,51.24S18.738.181,40.673-.257Z" transform="matrix(0.914, -0.407, 0.407, 0.914, 361.377, 5222.922)" fill="#ebf4f9"/>
    <path id="Path_30" data-name="Path 30" d="M138.843,54.215c15.752-72.287,124.606-72.287,140.358,0L355.1,337.4,416.536,684.43c9.192,42.182-24.768,81.734-70.179,81.734H71.689c-45.411,0-79.371-39.552-70.179-81.734L67.764,337.4Z" transform="translate(1317.408 4897.447) rotate(90)" fill="#ebf4f9"/>
    <path id="Path_33" data-name="Path 33" d="M56.94,0C88.345,0,113.8,26.84,113.8,59.949l-.218,56.274c-37.337,6.288-55.461,9.747-55.461,9.747s-28.8,5.125-58.375,10.379l.327-76.4C.077,26.84,25.535,0,56.94,0Z" transform="translate(774.699 5152.637)" fill="#fff"/>
    <path id="Path_32" data-name="Path 32" d="M32.353,15.575c33.5,6.718,37.337,7.278,37.337,7.278l-.409,113.222c0,20.17-15.509,36.52-34.641,36.52S0,156.245,0,136.075L1.552,10.063C19.853,13.336-1.144,8.857,32.353,15.575Z" transform="translate(667.585 4895.975)" fill="#fff"/>
    <path id="Path_34" data-name="Path 34" d="M22.453,14.767c7.656,1.9,16.851,4.2,26,6.525l-.02,55.879c0,14.081-10.827,25.5-24.183,25.5S.067,91.251.067,77.17L-.219,9.125C14.916,12.85,14.8,12.864,22.453,14.767Z" transform="translate(1156.411 5000.358)" fill="#fff"/>
  </g>
</svg>
