<svg xmlns="http://www.w3.org/2000/svg" width="391.715" height="854.497" viewBox="0 0 391.715 854.497">
  <path id="Subtraction_1" data-name="Subtraction 1" d="M160.118,933.743a161.119,161.119,0,0,1-36.192-4.162,166.877,166.877,0,0,1-34.392-12.037A164.562,164.562,0,0,1,58.6,898.305a155.733,155.733,0,0,1-25.818-25.769,146.986,146.986,0,0,1-16.989-27.16A143.781,143.781,0,0,1,5,814.239C-.117,791.215.339,766.842,6.356,741.8L112.262,307.958l98.346,39.921a80.255,80.255,0,0,0,29.675,6.055c8.5,0,16.261-1.645,22.451-4.756a30.42,30.42,0,0,0,8.081-5.782,24.16,24.16,0,0,0,5.227-7.908c3.6-8.916,1.585-19.481-5.679-29.749s-18.907-19.011-32.782-24.617L129.455,237.53,168.055,79.4c13.186-.033,20.75-.076,26.273-.108h.186c4.94-.029,8.509-.049,13.488-.049,9.6,0,24.349.077,65.753.343l119.3.208c-.128,73.088-.456,318.139-.28,479.946L289.04,518.494a36,36,0,0,0-26.971,66.758l130.853,52.243c.07,22.79.16,40.253.268,51.9L290.356,857.118A169.868,169.868,0,0,1,263.5,891.671,147.779,147.779,0,0,1,231.714,915.5a144.1,144.1,0,0,1-35.025,13.8A151.138,151.138,0,0,1,160.118,933.743Z" transform="translate(-1.476 -79.246)" fill="#ebf4f9"/>
</svg>
